<svg width="512" height="512" viewBox="0 0 512 512" fill="none" xmlns="http://www.w3.org/2000/svg">
  <rect width="512" height="512" rx="128" fill="#FFF1E7"/>
  <path d="M127 312C127 246.83 179.83 194 245 194H385V232H245C200.814 232 165 267.814 165 312V333C165 346.255 175.745 357 189 357H321C334.255 357 345 346.255 345 333V269H383V333C383 367.242 355.242 395 321 395H189C154.758 395 127 367.242 127 333V312Z" fill="#D76130"/>
  <path d="M211 137C211 118.222 226.222 103 245 103H264V194H245C226.222 194 211 178.778 211 160V137Z" fill="#F3A447"/>
  <circle cx="336" cy="157" r="48" fill="#F7C768"/>
  <path d="M306 157C306 140.431 319.431 127 336 127V187C319.431 187 306 173.569 306 157Z" fill="#FFE7A3"/>
</svg>
